# AST/ASF file generated using VICON BodyLanguage
# -----------------------------------------------
:version 1.10
:name VICON
:units
  mass 1.0
  length 0.45
  angle deg
:documentation
   .ast/.asf automatically generated from VICON data using
   VICON BodyBuilder and BodyLanguage model FoxedUp or BRILLIANT.MOD
:root
   order TX TY TZ RX RY RZ
   axis XYZ
   position 0 0 0  
   orientation 0 0 0 
:bonedata
  begin
     id 1 
     name lhipjoint
     direction 0.610259 -0.730986 0.305356 
     length 2.50941 
     axis 0 0 0  XYZ
  end
  begin
     id 2 
     name lfemur
     direction 0.34202 -0.939693 0  
     length 7.48822  
     axis 0 0 20  XYZ
    dof rx ry rz
    limits (-160.0 20.0)
           (-70.0 70.0)
           (-60.0 70.0)
  end
  begin
     id 3 
     name ltibia
     direction 0.34202 -0.939693 0   
     length 7.60141   
     axis 0 0 20   XYZ
    dof rx
    limits (-10.0 170.0)
  end
  begin
     id 4 
     name lfoot
     direction 0.0673488 -0.185039 0.980421   
     length 2.04049   
     axis -90 7.62852e-016 20   XYZ
    dof rx rz
    limits (-45.0 90.0)
           (-70.0 20.0)
  end
  begin
     id 5 
     name ltoes
     direction 1.5356e-011 -4.21729e-011 1   
     length 1.02897   
     axis -90 7.62852e-016 20   XYZ
    dof rx
    limits (-90.0 20.0)
  end
  begin
     id 6 
     name rhipjoint
     direction -0.57612 -0.754205 0.315056   
     length 2.43216  
     axis 0 0 0  XYZ 
  end
  begin
     id 7 
     name rfemur
     direction -0.34202 -0.939693 0   
     length 7.42799   
     axis 0 0 -20   XYZ
    dof rx ry rz
    limits (-160.0 20.0)
           (-70.0 70.0)
           (-70.0 60.0)
  end
  begin
     id 8 
     name rtibia
     direction -0.34202 -0.939693 0   
     length 7.69484   
     axis 0 0 -20   XYZ
    dof rx
    limits (-10.0 170.0)
 end
 begin
     id 9 
     name rfoot
     direction -0.111837 -0.30727 0.945028   
     length 2.15769  
     axis -90 -7.62852e-016 -20   XYZ
    dof rx rz
    limits (-45.0 90.0)
           (-20.0 70.0)
  end
  begin
     id 10 
     name rtoes
     direction -1.53539e-011 -4.21878e-011 1   
     length 1.07391   
     axis -90 -7.62852e-016 -20   XYZ
    dof rx
    limits (-90.0 20.0)
  end
  begin
     id 11 
     name lowerback
     direction 0.00552624 0.990109 -0.140195   
     length 2.12403   
     axis 0 0 0   XYZ
    dof rx ry rz
    limits (-20.0 45.0)
           (-30.0 30.0)
           (-30.0 30.0)
  end
  begin
     id 12 
     name upperback
     direction 0.00361898 0.999976 -0.00584723   
     length 2.13232   
     axis 0 0 0   XYZ
    dof rx ry rz
    limits (-20.0 45.0)
           (-30.0 30.0)
           (-30.0 30.0)
  end
  begin
     id 13 
     name thorax
     direction -0.000331275 0.998253 0.0590847   
     length 2.17688   
     axis 0 0 0   XYZ
    dof rx ry rz
    limits (-20.0 45.0)
           (-30.0 30.0)
           (-30.0 30.0)
  end
  begin
     id 14 
     name lowerneck
     direction -0.0561561 0.979832 0.19177   
     length 1.64159   
     axis 0 0 0   XYZ
    dof rx ry rz
    limits (-20.0 45.0)
           (-30.0 30.0)
           (-30.0 30.0)
  end
  begin
     id 15 
     name upperneck
     direction 0.0827153 0.979385 -0.184293   
     length 1.68939   
     axis 0 0 0   XYZ
    dof rx ry rz
    limits (-20.0 45.0)
           (-30.0 30.0)
           (-30.0 30.0)
  end
  begin
     id 16
     name head
     direction 0.0278583 0.995936 -0.0856488  
     length 1.70207  
     axis 0 0 0   XYZ
    dof rx ry rz
    limits (-20.0 45.0)
           (-30.0 30.0)
           (-30.0 30.0)
  end
  begin
     id 17 
     name lclavicle
     direction 0.950993 0.301131 -0.0702275  
     length 3.41652  
     axis 0 0 0   XYZ
    dof ry rz
    limits (-20.0 10.0)
           (0.0 20.0)
  end
  begin
     id 18 
     name lhumerus
     direction 1 -4.48981e-011 -3.9662e-029   
     length 5.32955   
     axis 180 -30 -90   XYZ
    dof rx ry rz
    limits (-60.0 90.0)
           (-90.0 90.0)
           (-90.0 90.0)
  end
  begin
     id 19
     name lradius
     direction 1 -4.48925e-011 -9.0549e-027   
     length 3.69232   
     axis 180 -30 -90   XYZ
    dof rx
    limits (-10.0 170.0)
  end
  begin
     id 20
     name lwrist
     direction 1 -4.49007e-011 -1.49005e-026   
     length 1.84616   
     axis 9.0955e-015 90 90   XYZ
    dof ry
    limits (-180.0 0.0)
 end
  begin
     id 21 
     name lhand
     direction 1 -4.49016e-011 -2.98023e-026   
     length 0.536598   
     axis 1.90115e-014 90 90   XYZ
    dof rx rz
    limits (-90.0 90.0)
           (-45.0 45.0)
  end
  begin
     id 22 
     name lfingers
     direction 1 -4.48924e-011 -5.9578e-026   
     length 0.432619   
     axis 3.80223e-014 90 90   XYZ
    dof rx
    limits (0.0 90.0)
  end
  begin
     id 23
     name lthumb
     direction 0.707107 -6.34947e-011 0.707107   
     length 0.621157   
     axis -90 45 -3.84942e-014   XYZ
    dof rx rz
    limits (-45.0 45.0)
           (-45.0 45.0)
  end
  begin
     id 24 
     name rclavicle
     direction -0.955495 0.276497 -0.102848   
     length 3.36357  
     axis 0 0 0   XYZ 
    dof ry rz
    limits (-10.0 20.0)
           (-20.0 0.0)
  end
  begin
     id 25 
     name rhumerus
     direction -1 -4.48961e-011 3.30983e-027  
     length 5.23431   
     axis 180 30 90   XYZ
    dof rx ry rz
    limits (-90.0 60.0)
           (-90.0 90.0)
           (-90.0 90.0)
  end
  begin
     id 26 
     name rradius
     direction -1 -4.48965e-011 -6.63263e-027   
     length 3.55301   
     axis 180 30 90   XYZ
    dof rx
    limits (-10.0 170.0)
  end
  begin
     id 27 
     name rwrist
     direction -1 -4.48942e-011 -1.48958e-026   
     length 1.77651   
     axis 9.0955e-015 -90 -90   XYZ
    dof ry
    limits (-180.0 0.0)
  end
  begin
     id 28
     name rhand
     direction -1 -4.48977e-011 -2.97966e-026   
     length 0.772522   
     axis 1.90115e-014 -90 -90   XYZ
    dof rx rz
    limits (-90.0 90.0)
           (-45.0 45.0)
  end
  begin
     id 29
     name rfingers
     direction -1 -4.49135e-011 -5.96389e-026   
     length 0.622827   
     axis 3.80223e-014 -90 -90   XYZ
    dof rx
    limits (0.0 90.0)
  end
  begin
     id 30
     name rthumb
     direction -0.707107 -6.34969e-011 0.707107   
     length 0.894259   
     axis -90 -45 3.84942e-014   XYZ
    dof rx rz
    limits (-45.0 45.0)
           (-45.0 45.0)
  end
:hierarchy
  begin
    root lhipjoint rhipjoint lowerback
    lhipjoint lfemur
    lfemur ltibia
    ltibia lfoot
    lfoot ltoes
    rhipjoint rfemur
    rfemur rtibia
    rtibia rfoot
    rfoot rtoes
    lowerback upperback
    upperback thorax
    thorax lowerneck lclavicle rclavicle
    lowerneck upperneck
    upperneck head
    lclavicle lhumerus
    lhumerus lradius
    lradius lwrist
    lwrist lhand lthumb
    lhand lfingers
    rclavicle rhumerus
    rhumerus rradius
    rradius rwrist
    rwrist rhand rthumb
    rhand rfingers
  end

#!OML:ASF F:\VICON\USERDATA\INSTALL\rory3\rory3.ASF
:FULLY-SPECIFIED
:DEGREES
1
root 11.7045 17.9023 -21.3998 2.35718 -3.48008 -0.711205
lowerback 9.89913 3.12238 1.71991
upperback 1.63019 4.30582 -0.406068
thorax -3.6822 2.11013 -1.93495
lowerneck -17.5788 -8.26013 -13.8014
upperneck 23.7904 -10.6567 10.9966
head 12.1275 -4.75712 4.69149
rclavicle -2.19409e-014 -7.45443e-016
rhumerus -30.3717 -8.97015 -86.6005
rradius 31.5239
rwrist 6.39371
rhand -15.5796 7.99939
rfingers 7.12502
rthumb 10.6057 -21.713
lclavicle -2.19409e-014 -7.45443e-016
lhumerus -40.8713 9.24681 77.7876
lradius 28.012
lwrist -9.42224
lhand -16.6883 24.0238
lfingers 7.12502
lthumb 9.5361 53.788
rfemur 10.1915 -2.33516 24.541
rtibia 29.4564
rfoot 1.67238 2.08009
rtoes -8.04326
lfemur -20.0896 -0.22557 -21.4179
ltibia 16.5754
lfoot -0.404846 -6.90482
ltoes -12.7166
2
root 11.7154 17.9338 -21.2635 2.12377 -3.43536 -0.475924
lowerback 9.94869 3.08175 1.48426
upperback 1.73022 4.22438 -0.462838
thorax -3.62177 2.0739 -1.85169
lowerneck -17.7213 -8.27557 -13.7153
upperneck 23.7393 -10.6506 10.8919
head 12.1225 -4.75405 4.63261
rclavicle 5.01931e-015 -1.49089e-016
rhumerus -30.5656 -8.91311 -86.5239
rradius 31.2926
rwrist 6.53373
rhand -15.2145 7.72402
rfingers 7.12502
rthumb 10.9578 -21.97
lclavicle 5.01931e-015 -1.49089e-016
lhumerus -40.4793 9.23944 77.9705
lradius 27.977
lwrist -8.98559
lhand -15.5309 26.0771
lfingers 7.12502
lthumb 10.6527 55.7871
rfemur 9.12772 -2.60704 23.9797
rtibia 31.9915
rfoot 3.74596 2.62982
rtoes -6.49727
lfemur -19.152 0.15445 -21.8125
ltibia 16.2495
lfoot -0.723511 -7.30281
ltoes -13.129
3
root 11.7272 17.9469 -21.129 1.95672 -3.41595 -0.175864
lowerback 9.95824 3.0371 1.18563
upperback 1.79648 4.12999 -0.543767
thorax -3.57699 2.03118 -1.75547
lowerneck -18.0594 -8.26816 -13.7862
upperneck 23.8999 -10.6051 10.9493
head 12.2546 -4.72185 4.67183
rclavicle 3.17496e-014 -5.91384e-015
rhumerus -30.7169 -8.9433 -86.4055
rradius 31.0197
rwrist 6.79775
rhand -14.6334 7.70811
rfingers 7.12502
rthumb 11.5183 -21.9554
lclavicle 3.17496e-014 -5.91384e-015
lhumerus -40.2657 8.94636 78.3228
lradius 28.1228
lwrist -7.68098
lhand -11.8984 32.2429
lfingers 7.12502
lthumb 14.1549 61.7407
rfemur 7.86483 -3.0276 23.3047
rtibia 34.7463
rfoot 5.42543 3.02666
rtoes -5.72778
lfemur -18.2003 0.629755 -22.3411
ltibia 15.5481
lfoot -0.931728 -7.73378
ltoes -14.6179
4
root 11.7406 17.9645 -20.9936 1.79287 -3.3137 0.151489
lowerback 10.0195 2.97369 0.878704
upperback 1.80874 4.01038 -0.629806
thorax -3.61734 1.97444 -1.66194
lowerneck -18.2253 -8.23442 -13.9172
upperneck 24.0189 -10.551 11.1045
head 12.3456 -4.68603 4.76457
rclavicle 1.51263e-014 -4.84538e-015
rhumerus -30.9321 -9.12076 -86.2346
rradius 30.715
rwrist 7.17238
rhand -14.5266 7.94188
rfingers 7.12502
rthumb 11.6214 -21.7159
lclavicle 1.51263e-014 -4.84538e-015
lhumerus -40.1345 8.62291 78.578
lradius 28.2776
lwrist -6.74662
lhand -13.9299 32.0975
lfingers 7.12502
lthumb 12.1967 61.7219
rfemur 6.64455 -3.53686 22.5712
rtibia 37.3398
rfoot 7.21657 3.76883
rtoes -4.90532
lfemur -17.2178 0.77318 -22.829
ltibia 14.9103
lfoot -1.04769 -7.95047
ltoes -14.0518
5
root 11.754 17.9869 -20.8593 1.62941 -3.16571 0.393359
lowerback 10.116 2.91644 0.687895
upperback 1.7515 3.91149 -0.707717
thorax -3.74077 1.92556 -1.63171
lowerneck -18.1246 -8.1902 -13.9059
upperneck 24.0427 -10.5074 11.1043
head 12.3272 -4.66941 4.7738
rclavicle -5.18797e-014 2.16178e-015
rhumerus -31.3567 -9.18109 -86.0693
rradius 30.6082
rwrist 7.47066
rhand -14.8736 8.34164
rfingers 7.12502
rthumb 11.2866 -21.3347
lclavicle -5.18797e-014 2.16178e-015
lhumerus -40.0996 8.39636 78.7075
lradius 28.5757
lwrist -6.44202
lhand -14.373 30.8754
lfingers 7.12502
lthumb 11.7695 60.5247
rfemur 5.33912 -3.96436 21.9841
rtibia 40.016
rfoot 9.1185 4.58786
rtoes -3.84028
lfemur -16.137 0.87042 -23.2066
ltibia 14.0571
lfoot -1.05479 -8.19823
ltoes -13.6082
6
root 11.7663 18.01 -20.7288 1.4325 -3.0037 0.636916
lowerback 10.2189 2.84032 0.45952
upperback 1.75079 3.78379 -0.759326
thorax -3.81365 1.86394 -1.54742
lowerneck -18.1259 -8.17145 -13.9322
upperneck 24.0158 -10.4834 11.1489
head 12.3178 -4.65615 4.79947
rclavicle 3.65577e-015 3.78933e-015
rhumerus -31.6212 -9.18501 -85.893
rradius 30.4861
rwrist 7.87139
rhand -15.5051 9.13516
rfingers 7.12502
rthumb 10.6775 -20.5735
lclavicle 3.65577e-015 3.78933e-015
lhumerus -40.0532 8.15962 78.893
lradius 29.0012
lwrist -6.1981
lhand -14.9318 29.5016
lfingers 7.12502
lthumb 11.2306 59.181
rfemur 4.06966 -4.31365 21.4474
rtibia 42.6201
rfoot 10.9168 4.77842
rtoes -2.08938
lfemur -15.0527 0.883591 -23.5636
ltibia 13.3292
lfoot -1.12782 -8.41051
ltoes -13.061
7
root 11.7773 18.0123 -20.605 1.28146 -2.83615 0.848017
lowerback 10.2249 2.76039 0.218295
upperback 1.83747 3.65153 -0.762761
thorax -3.74519 1.80219 -1.39638
lowerneck -18.3317 -8.19133 -13.94
upperneck 23.9703 -10.4623 11.0993
head 12.3353 -4.64627 4.7792
rclavicle 9.28387e-015 -6.4605e-015
rhumerus -31.7704 -9.24602 -85.6879
rradius 30.4978
rwrist 8.14757
rhand -15.7321 9.49224
rfingers 7.12502
rthumb 10.4586 -20.2276
lclavicle 9.28387e-015 -6.4605e-015
lhumerus -39.7967 8.11507 79.0266
lradius 29.2294
lwrist -6.39542
lhand -16.6049 26.1889
lfingers 7.12502
lthumb 9.61659 55.9494
rfemur 2.78367 -4.68579 20.9503
rtibia 45.2258
rfoot 12.6722 4.47683
rtoes 1.24831
lfemur -14.1014 0.789873 -23.866
ltibia 12.5008
lfoot -0.957204 -8.5523
ltoes -12.2732
8
root 11.7872 18.0322 -20.4832 1.16395 -2.60642 1.10366
lowerback 10.2361 2.65094 -0.0707891
upperback 1.87804 3.47509 -0.765902
thorax -3.73018 1.71827 -1.21442
lowerneck -18.2934 -8.19238 -13.8589
upperneck 23.8132 -10.4125 10.8727
head 12.238 -4.64476 4.68212
rclavicle -2.02947e-014 3.57812e-015
rhumerus -31.9976 -9.09724 -85.517
rradius 30.4839
rwrist 7.96506
rhand -15.3085 9.40057
rfingers 7.12502
rthumb 10.8672 -20.2982
lclavicle -2.02947e-014 3.57812e-015
lhumerus -39.6221 8.08566 79.1537
lradius 29.461
lwrist -6.72028
lhand -18.4451 22.3529
lfingers 7.12502
lthumb 7.84072 52.1875
rfemur 1.47259 -5.1638 20.4047
rtibia 47.7205
rfoot 14.7282 3.9965
rtoes 5.07227
lfemur -13.1285 0.876355 -24.2674
ltibia 11.7123
lfoot -0.928871 -8.84473
ltoes -11.5799
9
root 11.7936 18.0464 -20.3688 1.01449 -2.23355 1.39009
lowerback 10.3792 2.48219 -0.40772
upperback 1.87315 3.2131 -0.772048
thorax -3.83725 1.5916 -1.0053
lowerneck -18.2626 -8.1963 -13.9684
upperneck 23.7988 -10.3805 10.8492
head 12.2269 -4.64452 4.69722
rclavicle 4.88265e-015 1.07344e-014
rhumerus -32.2107 -9.12962 -85.3006
rradius 30.3866
rwrist 8.02427
rhand -14.8743 9.22899
rfingers 7.12502
rthumb 11.286 -20.4474
lclavicle 4.88265e-015 1.07344e-014
lhumerus -39.5524 7.72844 79.4514
lradius 29.9291
lwrist -6.2532
lhand -19.1022 21.719
lfingers 7.12502
lthumb 7.20648 51.5763
rfemur 0.125598 -5.62393 19.8938
rtibia 50.182
rfoot 16.8 3.51426
rtoes 8.63053
lfemur -12.0888 0.92127 -24.6908
ltibia 10.7386
lfoot -0.814329 -9.25126
ltoes -11.7593
10
root 11.8001 18.0546 -20.2535 0.76386 -1.8796 1.6486
lowerback 10.5726 2.34535 -0.701
upperback 1.93717 2.99607 -0.798377
thorax -3.89369 1.48713 -0.846374
lowerneck -18.389 -8.1513 -13.9901
upperneck 23.85 -10.3078 10.8889
head 12.2652 -4.60541 4.72883
rclavicle 3.91482e-014 -1.03865e-014
rhumerus -32.4205 -9.4054 -85.0525
rradius 30.4997
rwrist 8.47797
rhand -15.1214 9.62125
rfingers 7.12502
rthumb 11.0476 -20.068
lclavicle 3.91482e-014 -1.03865e-014
lhumerus -39.2652 7.01077 79.9191
lradius 30.1971
lwrist -4.7714
lhand -20.2235 21.6632
lfingers 7.12502
lthumb 6.124 51.5547
rfemur -1.07967 -6.03177 19.4318
rtibia 52.5013
rfoot 18.1835 3.26051
rtoes 8.44562
lfemur -10.8837 0.728603 -25.0391
ltibia 9.70151
lfoot -0.727792 -9.44422
ltoes -12.4962
